<svg width="32" height="32" viewBox="0 0 32 32" xmlns="http://www.w3.org/2000/svg">
    <defs>
        <linearGradient id="faviconGradient" x1="0%" y1="0%" x2="100%" y2="100%">
            <stop offset="0%" style="stop-color:#E8B4B8;stop-opacity:1" />
            <stop offset="100%" style="stop-color:#B4A7D6;stop-opacity:1" />
        </linearGradient>
    </defs>
    <circle cx="16" cy="16" r="14" fill="url(#faviconGradient)" stroke="#E8B4B8" stroke-width="2"/>
    <path d="M8 14 C8 14 12 10 16 10 C20 10 24 14 24 14 C24 18 20 22 16 22 C12 22 8 18 8 14" fill="#FFF8F0" opacity="0.9"/>
    <circle cx="13" cy="14" r="1.5" fill="#6B4E71"/>
    <circle cx="19" cy="14" r="1.5" fill="#6B4E71"/>
    <path d="M12 18 Q16 20 20 18" stroke="#E8B4B8" stroke-width="1.5" fill="none"/>
    <!-- Heart accent -->
    <path d="M16 24 C15 23 13 22 13 20 C13 19 14 18 15 18 C15.5 18.5 16 18.5 16 18.5 C16 18.5 16.5 18.5 17 18 C18 18 19 19 19 20 C19 22 17 23 16 24" fill="#E8B4B8" opacity="0.7"/>
</svg>